<svg width="30" height="49" viewBox="0 0 30 49" fill="none" xmlns="http://www.w3.org/2000/svg">
<path d="M17 2C17 0.895431 16.1046 0 15 0C13.8954 0 13 0.895431 13 2L17 2ZM13.5858 48.4142C14.3668 49.1953 15.6332 49.1953 16.4142 48.4142L29.1421 35.6863C29.9232 34.9052 29.9232 33.6389 29.1421 32.8579C28.3611 32.0768 27.0948 32.0768 26.3137 32.8579L15 44.1716L3.68629 32.8579C2.90524 32.0768 1.63891 32.0768 0.857864 32.8579C0.0768158 33.6389 0.0768158 34.9052 0.857864 35.6863L13.5858 48.4142ZM13 2L13 47H17L17 2L13 2Z" fill="white"/>
</svg>
