<svg width="75" height="75" viewBox="0 0 75 75" fill="none" xmlns="http://www.w3.org/2000/svg">
<circle cx="37.5" cy="37.5" r="35.75" stroke="#FFD500" stroke-width="3.5"/>
<path d="M18.7964 39.7097C18.0676 39.075 16.9622 39.1512 16.3274 39.88C15.6926 40.6088 15.7689 41.7142 16.4977 42.349L18.7964 39.7097ZM31.3235 52.9411L30.1742 54.2608C30.8677 54.8649 31.9106 54.829 32.561 54.1786L31.3235 52.9411ZM58.1492 28.5903C58.8326 27.9069 58.8326 26.7989 58.1492 26.1155C57.4658 25.4321 56.3577 25.4321 55.6743 26.1155L58.1492 28.5903ZM16.4977 42.349L30.1742 54.2608L32.4729 51.6215L18.7964 39.7097L16.4977 42.349ZM32.561 54.1786L58.1492 28.5903L55.6743 26.1155L30.0861 51.7037L32.561 54.1786Z" fill="#FFD500"/>
</svg>
